<?xml version="1.0" encoding="UTF-8" standalone="no"?>
<svg
   xmlns:dc="http://purl.org/dc/elements/1.1/"
   xmlns:cc="http://creativecommons.org/ns#"
   xmlns:rdf="http://www.w3.org/1999/02/22-rdf-syntax-ns#"
   xmlns:svg="http://www.w3.org/2000/svg"
   xmlns="http://www.w3.org/2000/svg"
   xmlns:sodipodi="http://sodipodi.sourceforge.net/DTD/sodipodi-0.dtd"
   xmlns:inkscape="http://www.inkscape.org/namespaces/inkscape"
   version="1.1"
   id="Layer_1"
   x="0px"
   y="0px"
   viewBox="0 0 78 143"
   xml:space="preserve"
   sodipodi:docname="clothes-zipper.svg"
   width="78"
   height="143"
   inkscape:version="0.92.5 (2060ec1f9f, 2020-04-08)"><metadata
     id="metadata493"><rdf:RDF><cc:Work
         rdf:about=""><dc:format>image/svg+xml</dc:format><dc:type
           rdf:resource="http://purl.org/dc/dcmitype/StillImage" /><dc:title></dc:title></cc:Work></rdf:RDF></metadata><defs
     id="defs491" /><sodipodi:namedview
     pagecolor="#ffffff"
     bordercolor="#666666"
     borderopacity="1"
     objecttolerance="10"
     gridtolerance="10"
     guidetolerance="10"
     inkscape:pageopacity="0"
     inkscape:pageshadow="2"
     inkscape:window-width="1440"
     inkscape:window-height="849"
     id="namedview489"
     showgrid="false"
     inkscape:zoom="1.920573"
     inkscape:cx="33.34"
     inkscape:cy="61.439999"
     inkscape:window-x="0"
     inkscape:window-y="27"
     inkscape:window-maximized="1"
     inkscape:current-layer="Layer_1" /><g
     id="g486"
     transform="matrix(1.1249238,0,0,1.1525405,2.0824951,0.33424091)"
     style="fill:#ffffff"><path
       d="M 14.69,53.93 C 14.55,53.74 14.44,53.53 14.38,53.3 13.47,51.96 12.51,50.61 11.53,49.23 2.69,36.81 -7.46,22.52 8.04,9.46 10.78,7.15 14.02,5.29 17.41,3.85 21.27,2.21 25.35,1.09 29.15,0.44 30.42,0.22 31.35,0.09 32.22,0.05 32.51,0.02 32.81,0 33.11,0 c 0.61,0 1.21,0.07 1.78,0.2 0.63,0.09 1.32,0.23 2.18,0.4 5.63,1.14 11.19,2.85 15.91,5.3 4.6,2.38 8.45,5.47 10.89,9.39 2.49,4.01 3.5,8.83 2.34,14.59 -0.57,2.81 -1.65,5.82 -3.32,9.06 -0.02,0.04 -0.05,0.09 -0.07,0.13 v 0 L 52.35,56.08 c -0.01,1.21 -0.03,3 -0.05,4.76 -0.1,8.47 -0.18,15.76 2.31,24.49 4.33,15.19 0.88,25.77 -5.6,31.76 -4.12,3.8 -9.47,5.73 -14.85,5.79 -5.37,0.06 -10.78,-1.72 -15.04,-5.33 -6.73,-5.69 -10.61,-15.85 -6.9,-30.31 2.29,-8.93 2.35,-18.15 2.41,-27.52 0.02,-1.93 0.03,-3.87 0.06,-5.79 z M 33.41,90 c 2.84,0 5.42,1.15 7.29,3 1.87,1.86 3.03,4.42 3.03,7.25 0,2.83 -1.16,5.39 -3.03,7.25 -1.87,1.86 -4.45,3 -7.29,3 -2.84,0 -5.42,-1.15 -7.29,-3 -1.87,-1.86 -3.03,-4.42 -3.03,-7.25 0,-2.83 1.16,-5.4 3.03,-7.25 1.87,-1.85 4.45,-3 7.29,-3 z m 4.52,5.79 c -1.15,-1.14 -2.75,-1.85 -4.52,-1.85 -1.77,0 -3.37,0.71 -4.52,1.85 -1.15,1.14 -1.86,2.72 -1.86,4.46 0,1.75 0.71,3.32 1.86,4.46 1.15,1.14 2.75,1.85 4.52,1.85 1.77,0 3.37,-0.71 4.52,-1.85 1.15,-1.14 1.86,-2.72 1.86,-4.46 0,-1.74 -0.71,-3.32 -1.86,-4.46 z M 40.78,5.5 c 0.28,0.82 0.43,1.7 0.43,2.61 v 22.51 c 0.26,0.16 0.52,0.32 0.79,0.5 0.65,0.43 1.31,0.91 1.98,1.45 2.88,2.31 5.05,5.37 6.47,9.22 0.78,2.14 1.33,4.53 1.64,7.17 L 59.44,37.01 C 60.92,34.14 61.86,31.5 62.35,29.1 63.29,24.42 62.5,20.55 60.52,17.36 58.48,14.08 55.18,11.46 51.17,9.39 48.04,7.77 44.48,6.49 40.78,5.5 Z m 0.44,29.9 v 8.69 c 0,2.23 -0.91,4.26 -2.38,5.73 -1.47,1.47 -3.5,2.38 -5.73,2.38 -2.23,0 -4.26,-0.91 -5.73,-2.38 C 25.91,48.35 25,46.32 25,44.09 V 35.9 c -2.08,1.79 -3.67,4.04 -4.78,6.72 -1.12,2.69 -1.76,5.84 -1.94,9.4 l 0.04,0.06 v 0 c 0.21,0.32 0.33,0.7 0.33,1.12 -0.04,2.2 -0.06,4.37 -0.07,6.52 -0.06,9.62 -0.13,19.08 -2.53,28.48 -3.26,12.74 -0.04,21.53 5.64,26.34 3.53,2.98 8,4.46 12.45,4.41 4.44,-0.05 8.84,-1.63 12.23,-4.76 C 51.86,109.12 54.7,99.92 50.85,86.4 48.22,77.16 48.3,69.59 48.4,60.8 48.42,59.42 48.43,58 48.43,55.52 v 0 c 0,-0.12 0.01,-0.24 0.03,-0.35 C 48.55,50.42 47.98,46.43 46.78,43.16 45.62,39.99 43.86,37.5 41.55,35.65 41.42,35.56 41.32,35.48 41.22,35.4 Z M 24.99,30.98 V 8.11 c 0,-1.01 0.19,-1.97 0.52,-2.87 -2.2,0.58 -4.43,1.31 -6.57,2.22 -3.08,1.31 -5.98,2.97 -8.39,5 -12.73,10.72 -3.7,23.43 4.16,34.49 l 0.13,0.18 c 0.38,-2.16 0.95,-4.17 1.71,-6.01 1.41,-3.41 3.48,-6.26 6.22,-8.51 0.46,-0.38 0.93,-0.74 1.39,-1.07 0.3,-0.2 0.57,-0.38 0.83,-0.56 z M 36.05,5.17 C 35.49,4.62 34.79,4.22 34,4.04 33.66,4 33.35,3.97 33.05,3.97 c -0.12,0 -0.25,0 -0.37,0 -0.97,0.1 -1.85,0.54 -2.51,1.2 -0.76,0.76 -1.23,1.8 -1.23,2.94 v 35.98 c 0,1.14 0.47,2.19 1.23,2.94 0.76,0.76 1.8,1.23 2.94,1.23 1.14,0 2.19,-0.47 2.94,-1.23 0.76,-0.76 1.23,-1.8 1.23,-2.94 0,-12 0,-23.97 0,-35.98 C 37.27,6.97 36.8,5.93 36.05,5.17 Z"
       id="path484"
       inkscape:connector-curvature="0"
       style="fill:#ffffff" /></g></svg>