<?xml version="1.0" encoding="UTF-8" standalone="no"?>
<!-- Created with Inkscape (http://www.inkscape.org/) -->

<svg
   xmlns:dc="http://purl.org/dc/elements/1.1/"
   xmlns:cc="http://creativecommons.org/ns#"
   xmlns:rdf="http://www.w3.org/1999/02/22-rdf-syntax-ns#"
   xmlns:svg="http://www.w3.org/2000/svg"
   xmlns="http://www.w3.org/2000/svg"
   xmlns:sodipodi="http://sodipodi.sourceforge.net/DTD/sodipodi-0.dtd"
   xmlns:inkscape="http://www.inkscape.org/namespaces/inkscape"
   version="1.1"
   id="svg108"
   width="48"
   height="36"
   viewBox="0 0 48 36"
   sodipodi:docname="email.svg"
   inkscape:version="0.92.5 (2060ec1f9f, 2020-04-08)">
  <metadata
     id="metadata114">
    <rdf:RDF>
      <cc:Work
         rdf:about="">
        <dc:format>image/svg+xml</dc:format>
        <dc:type
           rdf:resource="http://purl.org/dc/dcmitype/StillImage" />
        <dc:title></dc:title>
      </cc:Work>
    </rdf:RDF>
  </metadata>
  <defs
     id="defs112" />
  <sodipodi:namedview
     pagecolor="#ffffff"
     bordercolor="#666666"
     borderopacity="1"
     objecttolerance="10"
     gridtolerance="10"
     guidetolerance="10"
     inkscape:pageopacity="0"
     inkscape:pageshadow="2"
     inkscape:window-width="1440"
     inkscape:window-height="849"
     id="namedview110"
     showgrid="false"
     inkscape:zoom="6.6774193"
     inkscape:cx="35.132712"
     inkscape:cy="14.439264"
     inkscape:window-x="0"
     inkscape:window-y="27"
     inkscape:window-maximized="1"
     inkscape:current-layer="svg108" />
  <path
     style="fill:#ffffff;stroke-width:0.0914824"
     d="M 2.6226209,34.747944 C 2.3639619,34.65669 2.0191106,34.410556 1.693061,34.084495 0.81112961,33.202574 0.88400137,34.652739 0.88400137,17.983243 0.88400137,1.3142294 0.81122179,2.7634549 1.6926018,1.882983 2.6052274,0.97130769 0.19889158,1.0590007 24.303489,1.0590007 c 24.107445,0 21.697995,-0.087993 22.612417,0.8255138 0.883564,0.8826464 0.812674,-0.587515 0.785297,16.2859965 l -0.02399,14.770107 -0.27444,0.541715 c -0.182235,0.359681 -0.412783,0.64386 -0.686119,0.845715 -0.845545,0.624414 0.8932,0.580186 -22.498399,0.572213 C 5.122523,34.894131 2.9932706,34.878721 2.6226043,34.747944 Z M 43.773993,32.812421 c -0.01675,-0.04532 -3.218557,-3.316602 -7.115072,-7.269472 -6.026492,-6.113633 -7.105805,-7.170449 -7.226644,-7.07604 -0.07808,0.06104 -0.986189,0.812969 -2.017917,1.670964 -2.498684,2.077947 -2.382165,1.998013 -2.825999,1.938484 -0.307257,-0.04122 -0.744782,-0.348958 -2.676039,-1.882313 l -2.30872,-1.83304 -0.829068,0.788644 C 17.102182,20.740454 4.6347723,32.831695 4.6347723,32.862785 c 0,0.01766 8.8131907,0.03203 19.5848617,0.03203 11.587733,0 19.572397,-0.03368 19.554359,-0.08249 z M 45.122954,4.6492781 C 45.070374,4.5967141 31.713562,16.414896 31.713562,16.513889 c 0,0.04267 3.015489,3.359995 6.701086,7.371764 l 6.701086,7.294125 0.02316,-13.245684 c 0.01275,-7.285121 0.005,-13.2632888 -0.01592,-13.2848159 z M 10.803486,23.472451 C 14.454845,19.673786 17.440125,16.545082 17.437459,16.51979 17.433375,16.478856 4.400785,5.4508146 3.7204216,4.9124077 L 3.445502,4.6948545 V 17.901564 31.108273 L 3.8050832,30.74369 C 4.002854,30.543173 7.1521356,27.271105 10.803486,23.472451 Z m 23.39654,-12.312242 c 5.166365,-4.3732581 9.396277,-7.982246 9.399819,-8.0199832 0.003,-0.037768 -8.730142,-0.068597 -19.408168,-0.068597 -19.0186916,0 -19.4109165,0.00303 -19.234173,0.1723447 0.6285702,0.6004266 19.663867,15.9293255 19.746661,15.9017435 0.05634,-0.01878 4.329499,-3.612255 9.495861,-7.985502 z"
     id="path118"
     inkscape:connector-curvature="0" />
</svg>
