<?xml version="1.0" encoding="UTF-8" standalone="no"?>
<svg
   xmlns:dc="http://purl.org/dc/elements/1.1/"
   xmlns:cc="http://creativecommons.org/ns#"
   xmlns:rdf="http://www.w3.org/1999/02/22-rdf-syntax-ns#"
   xmlns:svg="http://www.w3.org/2000/svg"
   xmlns="http://www.w3.org/2000/svg"
   xmlns:sodipodi="http://sodipodi.sourceforge.net/DTD/sodipodi-0.dtd"
   xmlns:inkscape="http://www.inkscape.org/namespaces/inkscape"
   version="1.1"
   id="Layer_1"
   x="0px"
   y="0px"
   viewBox="0 0 168 127"
   xml:space="preserve"
   sodipodi:docname="girl-skirt.svg"
   width="168"
   height="127"
   inkscape:version="0.92.5 (2060ec1f9f, 2020-04-08)"><metadata
     id="metadata143"><rdf:RDF><cc:Work
         rdf:about=""><dc:format>image/svg+xml</dc:format><dc:type
           rdf:resource="http://purl.org/dc/dcmitype/StillImage" /><dc:title></dc:title></cc:Work></rdf:RDF></metadata><defs
     id="defs141" /><sodipodi:namedview
     pagecolor="#ffffff"
     bordercolor="#666666"
     borderopacity="1"
     objecttolerance="10"
     gridtolerance="10"
     guidetolerance="10"
     inkscape:pageopacity="0"
     inkscape:pageshadow="2"
     inkscape:window-width="1440"
     inkscape:window-height="849"
     id="namedview139"
     showgrid="false"
     inkscape:zoom="3.3477089"
     inkscape:cx="63.27895"
     inkscape:cy="65.158139"
     inkscape:window-x="0"
     inkscape:window-y="27"
     inkscape:window-maximized="1"
     inkscape:current-layer="Layer_1" /><style
     type="text/css"
     id="style132">.st0{fill-rule:evenodd;clip-rule:evenodd;}</style><g
     id="g136"
     transform="matrix(1.2479418,0,0,1.3091955,6.5713892,4.9762484)"
     style="fill:#ffffff"><path
       class="st0"
       d="m 60.21,47.96 c 0,-0.68 0.55,-1.23 1.23,-1.23 0.68,0 1.23,0.55 1.23,1.23 v 40.99 c 5.14,1.23 10.04,1.62 14.68,1.17 4.66,-0.45 9.08,-1.75 13.26,-3.91 L 84.92,48.13 c -0.1,-0.67 0.36,-1.29 1.03,-1.39 0.67,-0.1 1.29,0.36 1.39,1.03 l 5.67,37.98 c 5.06,0.76 9.93,0.98 14.54,0.37 4.5,-0.6 8.76,-1.98 12.69,-4.41 L 100.81,12.6 H 22.59 L 2.64,81.56 c 4.04,2.61 8.34,4.05 12.82,4.67 4.56,0.63 9.32,0.41 14.2,-0.3 l 5.7,-38.15 c 0.1,-0.67 0.72,-1.13 1.39,-1.03 0.67,0.1 1.13,0.72 1.03,1.39 l -5.71,38.2 c 4.79,2.22 9.5,3.41 14.14,3.76 4.72,0.36 9.38,-0.14 13.99,-1.28 V 47.96 Z m 1.15,43.19 C 61.28,91.14 61.2,91.13 61.12,91.11 56.15,92.37 51.13,92.93 46.04,92.54 40.93,92.15 35.75,90.82 30.47,88.28 25.22,89.08 20.08,89.34 15.13,88.65 10.01,87.94 5.11,86.23 0.52,83.08 0.07,82.77 -0.1,82.2 0.06,81.7 L 20.22,12 C 20.07,11.8 19.99,11.55 19.99,11.28 V 1.23 C 19.99,0.55 20.54,0 21.22,0 H 102 c 0.68,0 1.23,0.55 1.23,1.23 v 10.05 c 0,0.18 -0.04,0.35 -0.11,0.5 l 19.72,70.14 c 0.16,0.56 -0.1,1.13 -0.58,1.4 -4.44,2.91 -9.27,4.54 -14.39,5.22 -4.97,0.66 -10.2,0.41 -15.61,-0.43 h -0.01 c -4.61,2.46 -9.5,3.94 -14.67,4.44 -5.14,0.5 -10.55,0.04 -16.22,-1.4 z"
       id="path134"
       inkscape:connector-curvature="0"
       style="clip-rule:evenodd;fill-rule:evenodd;fill:#ffffff" /></g></svg>