<?xml version="1.0" encoding="UTF-8" standalone="no"?>
<!-- Created with Inkscape (http://www.inkscape.org/) -->

<svg
   xmlns:dc="http://purl.org/dc/elements/1.1/"
   xmlns:cc="http://creativecommons.org/ns#"
   xmlns:rdf="http://www.w3.org/1999/02/22-rdf-syntax-ns#"
   xmlns:svg="http://www.w3.org/2000/svg"
   xmlns="http://www.w3.org/2000/svg"
   xmlns:sodipodi="http://sodipodi.sourceforge.net/DTD/sodipodi-0.dtd"
   xmlns:inkscape="http://www.inkscape.org/namespaces/inkscape"
   version="1.1"
   id="svg350"
   width="93"
   height="157"
   viewBox="0 0 93 157"
   sodipodi:docname="jeans-pants.svg"
   inkscape:version="0.92.5 (2060ec1f9f, 2020-04-08)">
  <metadata
     id="metadata356">
    <rdf:RDF>
      <cc:Work
         rdf:about="">
        <dc:format>image/svg+xml</dc:format>
        <dc:type
           rdf:resource="http://purl.org/dc/dcmitype/StillImage" />
        <dc:title></dc:title>
      </cc:Work>
    </rdf:RDF>
  </metadata>
  <defs
     id="defs354" />
  <sodipodi:namedview
     pagecolor="#ffffff"
     bordercolor="#666666"
     borderopacity="1"
     objecttolerance="10"
     gridtolerance="10"
     guidetolerance="10"
     inkscape:pageopacity="0"
     inkscape:pageshadow="2"
     inkscape:window-width="1440"
     inkscape:window-height="849"
     id="namedview352"
     showgrid="false"
     scale-x="1"
     inkscape:zoom="2.6074563"
     inkscape:cx="72.620971"
     inkscape:cy="87.669744"
     inkscape:window-x="0"
     inkscape:window-y="27"
     inkscape:window-maximized="1"
     inkscape:current-layer="svg350" />
  <path
     style="fill:#ffffff;stroke-width:0.29556063"
     d="m 1.8513998,153.93169 c -0.2698125,-0.26982 -0.4644493,-0.9677 -0.4644493,-1.66537 0,-1.13694 4.3138292,-141.140326 4.5000257,-146.0462629 C 5.9584944,4.3362567 6.0815249,3.825203 6.5452494,3.4861216 7.3743534,2.8798602 84.924565,2.8580369 85.753044,3.4638239 c 0.509895,0.3728457 0.661998,4.5167452 2.741173,74.6790991 1.592547,53.740927 2.114532,74.474857 1.887464,74.973207 L 90.06781,153.805 H 75.181474 c -13.810597,0 -14.918554,-0.0373 -15.332132,-0.51723 -0.32466,-0.37668 -2.243479,-13.84001 -7.061777,-49.54861 -4.678097,-34.669507 -6.679482,-48.73764 -6.832736,-48.028595 -0.119272,0.551525 -3.228588,22.748645 -6.909724,49.326925 -4.936196,35.63991 -6.81237,48.45995 -7.147783,48.8414 -0.421578,0.47945 -1.518595,0.51724 -15.018134,0.51724 -12.8453068,0 -14.6181245,-0.0547 -15.0277882,-0.46445 z m 27.7286532,-3.59951 c 0.08902,-0.44703 3.506104,-24.95271 7.593578,-54.457054 8.082693,-58.342748 7.534953,-55.148896 9.348566,-54.511085 0.460124,0.161819 0.915308,0.605125 1.047196,1.019874 0.185834,0.58437 14.703052,107.468245 14.703052,108.252085 0,0.1174 5.65259,0.21341 12.561327,0.21341 h 12.561316 l -0.0012,-2.29059 C 87.392937,147.29899 86.661776,121.7293 85.76916,91.737277 84.876556,61.745259 84.14582,36.933733 84.145307,36.600549 84.144419,36.086664 83.7072,35.872332 81.26267,35.187755 72.115053,32.626015 66.668964,27.181966 64.137291,18.068784 l -0.80056,-2.881717 H 57.041408 50.746072 V 26.40189 37.616713 l -0.712846,0.829276 c -0.679651,0.790638 -0.851533,0.833997 -3.689699,0.930708 -2.973442,0.101314 -2.977868,0.100422 -3.868334,-0.790057 l -0.89149,-0.891491 V 26.441108 15.187067 H 35.086992 28.590295 L 28.416987,15.99986 C 26.26176,26.108052 20.566749,32.366053 11.011194,35.126336 9.5580852,35.546092 8.3090523,35.949651 8.2355644,36.023132 8.0970877,36.161612 4.6703246,143.57394 4.6500705,148.41104 l -0.011252,2.73393 H 17.028877 29.418936 Z M 47.789972,25.67947 V 15.187067 H 46.164381 44.538803 V 25.67947 36.171874 h 1.625578 1.625591 z m -36.758625,6.203191 c 6.05833,-2.033717 9.929276,-5.356352 12.391872,-10.636601 0.791597,-1.697327 1.904143,-5.132865 1.904143,-5.879985 0,-0.09845 -3.710442,-0.179008 -8.245425,-0.179008 H 8.8365262 l -0.1716698,3.91618 c -0.4925038,11.235314 -0.523898,13.521898 -0.185635,13.521898 0.1871607,0 1.3356241,-0.334117 2.5521256,-0.742484 z m 72.913997,-0.956988 c -0.04863,-0.934712 -0.171806,-4.85828 -0.2736,-8.719039 l -0.185085,-7.019567 h -8.390401 c -4.614721,0 -8.390413,0.102435 -8.390413,0.227612 0,0.824165 1.362342,4.873747 2.19756,6.53225 2.413937,4.793457 6.243313,7.950799 12.036368,9.924051 3.124106,1.064148 3.110467,1.068439 3.005571,-0.945307 z"
     id="path409"
     inkscape:connector-curvature="0" />
</svg>
