<?xml version="1.0" encoding="UTF-8" standalone="no"?>
<svg
   xmlns:dc="http://purl.org/dc/elements/1.1/"
   xmlns:cc="http://creativecommons.org/ns#"
   xmlns:rdf="http://www.w3.org/1999/02/22-rdf-syntax-ns#"
   xmlns:svg="http://www.w3.org/2000/svg"
   xmlns="http://www.w3.org/2000/svg"
   xmlns:sodipodi="http://sodipodi.sourceforge.net/DTD/sodipodi-0.dtd"
   xmlns:inkscape="http://www.inkscape.org/namespaces/inkscape"
   version="1.1"
   id="Layer_1"
   x="0px"
   y="0px"
   viewBox="0 0 110 160"
   xml:space="preserve"
   sodipodi:docname="sewing-thread.svg"
   width="110"
   height="160"
   inkscape:version="0.92.5 (2060ec1f9f, 2020-04-08)"><metadata
     id="metadata398"><rdf:RDF><cc:Work
         rdf:about=""><dc:format>image/svg+xml</dc:format><dc:type
           rdf:resource="http://purl.org/dc/dcmitype/StillImage" /><dc:title /></cc:Work></rdf:RDF></metadata><defs
     id="defs396" /><sodipodi:namedview
     pagecolor="#ffffff"
     bordercolor="#666666"
     borderopacity="1"
     objecttolerance="10"
     gridtolerance="10"
     guidetolerance="10"
     inkscape:pageopacity="0"
     inkscape:pageshadow="2"
     inkscape:window-width="1440"
     inkscape:window-height="849"
     id="namedview394"
     showgrid="false"
     inkscape:zoom="1.920573"
     inkscape:cx="42.299999"
     inkscape:cy="61.439999"
     inkscape:window-x="0"
     inkscape:window-y="27"
     inkscape:window-maximized="1"
     inkscape:current-layer="g391" /><g
     id="g391"
     transform="translate(0,37.120003)"><path
       d="m 42.209336,-15.396059 0.633685,-14.151821 c 0.04527,-1.01356 0.430002,-1.951103 1.02974,-2.622585 v 0 c 0.62237,-0.722161 1.482372,-1.152924 2.444217,-1.152924 H 73.87099 c 0.961845,0 1.821847,0.430763 2.444217,1.140254 0.09052,0.101355 0.169738,0.202712 0.248948,0.316737 0.463949,0.646144 0.746845,1.444323 0.792107,2.305848 l 0.678949,14.164491 H 90.56182 c 1.45974,0 2.659216,1.279619 2.749744,2.901314 L 104.41238,96.222163 c 0.16973,1.685042 -0.91658,3.218051 -2.42159,3.408092 -0.10183,0.01267 -0.20368,0.02534 -0.31683,0.02534 v 0 H 83.478119 l 0.927897,18.636825 v 0 l 0.01131,0.21538 c 0,1.06424 -0.396055,2.01445 -1.02974,2.71127 -0.588423,0.64614 -1.391846,1.07691 -2.263163,1.12759 h -0.03395 c -0.113158,0.0126 -0.13579,0.0126 -0.158421,0.0126 H 39.697226 c -0.124475,0 -0.260265,-0.0126 -0.373423,-0.038 -0.792108,-0.10138 -1.527635,-0.50677 -2.070794,-1.10224 -0.633687,-0.69682 -1.02974,-1.64703 -1.02974,-2.72394 0,-0.11403 0.01132,-0.22805 0.02263,-0.3294 L 37.071954,99.642903 H 19.702175 c -1.527635,0 -2.761059,-1.380975 -2.761059,-3.091356 0,-0.177373 0.01132,-0.367415 0.04527,-0.532119 L 26.638773,-0.53474471 10.491103,-3.3600414 C 9.3029424,-3.5754227 8.5108353,-4.7663549 8.7032041,-6.0206346 8.895573,-7.2749142 10.015839,-8.1364397 11.204,-7.9210583 l 15.887406,2.7999576 0.746843,-7.5256783 c 0.158422,-1.583686 1.346582,-2.74928 2.738428,-2.74928 v 0 z m 30.801652,0 -0.588423,-12.302076 H 47.776718 l -0.554475,12.302076 z M 78.465212,99.642925 H 42.073546 L 41.304071,116.7214 H 79.302583 Z M 26.140877,59.784704 96.468678,72.821612 95.223936,60.608222 27.261143,48.648222 Z M 96.955258,77.610679 25.688244,64.396399 24.53403,75.938307 97.973686,87.518222 Z M 98.448943,92.269281 24.070082,80.537332 22.780079,93.472883 H 98.573413 Z M 32.534313,-4.1708888 89.633923,5.8760185 88.094972,-9.2260161 H 33.043526 Z M 90.120503,10.639746 32.08168,0.4281366 30.984047,11.361909 91.331295,22.485721 Z M 91.817876,27.274789 30.520097,15.973602 29.365885,27.578857 93.096564,39.804917 Z M 93.583143,44.593984 28.901936,32.190552 27.713775,44.049196 94.726041,55.857162 Z"
       id="path389"
       inkscape:connector-curvature="0"
       style="fill:#ffffff;stroke-width:1.19735396" /></g></svg>